<?xml version="1.0" encoding="UTF-8"?>
<!DOCTYPE svg PUBLIC "-//W3C//DTD SVG 1.1//EN" "http://www.w3.org/Graphics/SVG/1.1/DTD/svg11.dtd">
<!-- Creator: CorelDRAW X7 -->
<svg xmlns="http://www.w3.org/2000/svg" xml:space="preserve" width="181mm" height="55mm" version="1.1" style="shape-rendering:geometricPrecision; text-rendering:geometricPrecision; image-rendering:optimizeQuality; fill-rule:evenodd; clip-rule:evenodd"
viewBox="0 0 18100 5500"
 xmlns:xlink="http://www.w3.org/1999/xlink">
 <defs>
  <style type="text/css">
   <![CDATA[
    .fil1 {fill:none}
    .fil0 {fill:#065174;fill-rule:nonzero}
   ]]>
  </style>
 </defs>
 <g id="Layer_x0020_1">
  <metadata id="CorelCorpID_0Corel-Layer"/>
  <g id="_2381547851952">
   <g id="_3003166543888">
    <path class="fil0" d="M698 1483c127,0 227,94 297,282l663 1329c41,72 93,109 156,109 84,0 178,-139 282,-416 9,-36 15,-69 15,-98 0,-75 -66,-232 -196,-471 -189,-377 -283,-578 -283,-602l0 -32c10,-68 56,-101 137,-101l222 0c135,0 232,82 293,246 58,104 117,155 177,155 66,0 134,-75 204,-227 58,-116 140,-174 249,-174l233 0c81,0 127,33 137,101l0 18c0,38 -49,151 -149,337 -99,193 -174,346 -226,460 -52,114 -83,187 -92,220l-12 74c0,94 64,243 189,449 41,41 81,61 120,61 79,0 163,-110 250,-329l641 -1275c58,-78 129,-116 213,-116l233 0c62,0 106,24 133,72l4 29 0 32c0,13 -18,56 -53,131 -35,75 -88,183 -158,322l-897 1818c-58,87 -134,130 -225,130l-286 0c-130,0 -233,-99 -308,-300 -71,-140 -132,-209 -184,-209l-38 0c-67,0 -152,117 -253,354 -58,104 -136,155 -235,155l-290 0c-111,0 -196,-62 -254,-188 -697,-1405 -1055,-2134 -1075,-2187 -2,-5 -4,-13 -4,-26l0 -32c0,-55 43,-90 130,-101l240 0 0 0z"/>
    <path class="fil0" d="M4762 1645c0,-47 14,-87 42,-117 27,-30 67,-45 120,-45l185 0c46,0 84,14 114,41 30,28 45,69 45,121l0 2210c0,46 -13,85 -39,116 -27,31 -67,46 -120,46l-185 0c-47,0 -87,-14 -117,-41 -30,-27 -45,-68 -45,-121l0 -2210 0 0z"/>
    <path class="fil0" d="M5449 3669c0,-48 14,-87 42,-117 28,-29 69,-44 122,-44l1670 0c248,0 391,-22 427,-67 103,-67 156,-153 156,-254 0,-126 -77,-223 -229,-288 -31,-20 -150,-29 -354,-29l-1123 0c-355,0 -588,-166 -696,-497 -15,-65 -22,-130 -22,-195l0 -7c0,-299 138,-513 414,-641 79,-31 170,-47 275,-47l2111 0c46,0 83,14 114,41 30,28 45,69 45,121l0 185c0,46 -13,85 -40,116 -26,31 -66,48 -119,48l-1822 0c-220,0 -341,23 -366,68 -33,27 -50,65 -50,116 0,92 68,149 202,170 47,8 127,11 243,11l1130 0c350,0 602,161 757,482 44,101 65,215 65,340l0 11c0,317 -135,558 -405,724 -121,68 -255,101 -402,101l-1981 0c-49,0 -88,-13 -119,-41 -30,-27 -45,-68 -45,-120l0 -187 0 0z"/>
    <path class="fil0" d="M8579 3669c0,-48 14,-87 41,-117 28,-29 69,-44 122,-44l2622 0c46,0 85,14 116,40 32,28 47,69 47,121l0 187c0,45 -14,84 -42,115 -28,31 -67,46 -121,46l-2622 0c-48,0 -88,-14 -118,-41 -30,-27 -45,-68 -45,-120l0 -187z"/>
    <path class="fil0" d="M8579 2654c0,-49 14,-87 41,-116 28,-29 69,-43 122,-43l2622 0c46,0 85,13 116,40 32,26 47,66 47,119l0 188c0,47 -14,85 -42,116 -28,32 -67,48 -121,48l-2622 0c-48,0 -88,-14 -118,-42 -30,-28 -45,-68 -45,-122l0 -188z"/>
    <path class="fil0" d="M8579 1645c0,-47 14,-87 41,-117 28,-30 69,-45 122,-45l2622 0c48,0 87,14 118,41 30,28 45,69 45,121l0 185c0,46 -14,85 -42,116 -28,31 -67,47 -121,47l-2622 0c-46,0 -84,-13 -116,-41 -31,-28 -47,-69 -47,-122l0 -185 0 0z"/>
    <path class="fil0" d="M14649 3856c0,45 -14,84 -42,115 -27,31 -68,46 -121,46l-1554 0c-376,0 -695,-151 -956,-452 -183,-229 -275,-489 -275,-778l0 -74c0,-376 151,-694 453,-955 229,-184 489,-275 778,-275l1554 0c48,0 88,14 118,41 30,28 45,69 45,121l0 185c0,46 -14,85 -42,116 -27,31 -68,47 -121,47l-1235 0c-302,0 -483,23 -543,66 -78,22 -174,89 -291,203 -130,165 -195,327 -195,490 0,216 101,412 305,588 132,112 332,168 598,168l1361 0c46,0 84,14 116,40 31,28 47,69 47,121l0 187 0 0z"/>
    <path class="fil0" d="M14823 1645c0,-47 14,-87 41,-117 28,-30 69,-45 122,-45l2097 0c316,0 534,152 655,456 22,72 34,147 34,224l0 26c0,94 -18,183 -50,265 -33,84 -79,157 -140,219 -60,61 -134,109 -224,144 -89,36 -189,53 -300,53l-1318 0c-112,0 -168,-63 -168,-189l0 -134c0,-125 56,-188 168,-188l1024 0c227,0 355,-21 384,-61 41,-29 62,-71 62,-123 0,-78 -45,-132 -134,-159 -29,-16 -123,-22 -283,-22l-1134 0c-171,0 -268,32 -289,97 -19,41 -29,82 -29,123 -2,416 -4,761 -4,1035 0,274 0,480 0,620 0,39 -14,73 -43,103 -29,30 -69,45 -120,45l-188 0c-49,0 -87,-13 -117,-41 -31,-27 -46,-68 -46,-121l0 -2210 0 0z"/>
   </g>
  </g>
  <rect class="fil1" width="18100" height="5500"/>
 </g>
</svg>
