<?xml version="1.0" encoding="UTF-8"?>
<!DOCTYPE svg PUBLIC "-//W3C//DTD SVG 1.1//EN" "http://www.w3.org/Graphics/SVG/1.1/DTD/svg11.dtd">
<!-- Creator: CorelDRAW X7 -->
<svg xmlns="http://www.w3.org/2000/svg" xml:space="preserve" width="354.796mm" height="107.811mm" version="1.1" style="shape-rendering:geometricPrecision; text-rendering:geometricPrecision; image-rendering:optimizeQuality; fill-rule:evenodd; clip-rule:evenodd"
viewBox="0 0 8731 2653"
 xmlns:xlink="http://www.w3.org/1999/xlink">
 <defs>
  <style type="text/css">
   <![CDATA[
    .fil0 {fill:none}
    .fil1 {fill:#065174;fill-rule:nonzero}
   ]]>
  </style>
 </defs>
 <g id="Layer_x0020_1">
  <metadata id="CorelCorpID_0Corel-Layer"/>
  <rect class="fil0" width="8731" height="2653"/>
  <path class="fil1" d="M884 798c54,0 95,39 124,118l276 554c17,30 39,45 65,45 36,0 75,-58 118,-173 4,-15 6,-29 6,-41 0,-31 -27,-97 -81,-196 -79,-157 -118,-241 -118,-251l0 -14c4,-28 23,-42 57,-42l92 0c57,0 97,34 123,103 24,43 48,65 74,65 27,0 55,-32 84,-95 24,-49 59,-73 104,-73l97 0c34,0 53,14 57,42l0 8c0,16 -20,63 -62,140 -41,81 -72,145 -94,192 -22,47 -34,78 -39,92l-4 30c0,40 26,102 78,188 18,17 34,25 50,25 33,0 68,-45 104,-137l268 -531c24,-33 54,-49 89,-49l96 0c27,0 45,10 56,30l2 12 0 14c0,5 -8,23 -22,54 -15,32 -37,76 -66,135l-374 758c-24,36 -56,54 -94,54l-119 0c-54,0 -97,-42 -128,-125 -30,-59 -55,-88 -77,-88l-16 0c-28,0 -63,49 -105,148 -24,43 -57,65 -98,65l-121 0c-46,0 -82,-26 -106,-79 -291,-585 -440,-889 -448,-911 -1,-2 -2,-6 -2,-11l0 -14c0,-23 18,-37 55,-42l99 0zm5888 68c0,-20 6,-36 18,-49 11,-13 28,-19 50,-19l874 0c132,0 223,64 274,190 9,31 13,62 13,94l0 11c0,39 -7,76 -20,111 -14,34 -33,64 -58,90 -26,26 -57,46 -94,61 -37,14 -79,21 -125,21l-550 0c-46,0 -69,-26 -69,-78l0 -56c0,-52 23,-78 69,-78l427 0c95,0 148,-9 160,-26 18,-12 26,-29 26,-51 0,-33 -19,-55 -56,-67 -12,-6 -51,-9 -118,-9l-472 0c-72,0 -112,14 -121,41 -8,17 -12,34 -12,51 -1,173 -1,317 -1,431 0,114 0,201 0,259 0,16 -6,31 -19,43 -12,13 -28,19 -49,19l-79 0c-20,0 -36,-6 -49,-17 -13,-12 -19,-29 -19,-51l0 -921zm-72 922c0,18 -6,35 -18,48 -11,12 -28,19 -50,19l-648 0c-157,0 -290,-63 -398,-189 -77,-95 -115,-204 -115,-324l0 -30c0,-158 63,-290 189,-399 95,-77 203,-115 324,-115l648 0c20,0 36,6 49,18 12,11 19,28 19,50l0 77c0,19 -6,35 -18,48 -11,14 -28,20 -50,20l-515 0c-126,0 -201,9 -226,27 -33,9 -73,38 -121,85 -55,69 -82,137 -82,204 0,90 42,172 127,245 55,47 138,70 249,70l568 0c19,0 35,6 48,17 13,12 20,29 20,51l0 78zm-2531 -922c0,-20 6,-36 18,-49 11,-13 28,-19 50,-19l1093 0c21,0 37,6 49,18 13,11 19,28 19,50l0 77c0,19 -5,35 -17,48 -12,14 -28,20 -51,20l-1093 0c-19,0 -35,-6 -48,-17 -13,-12 -20,-29 -20,-51l0 -77zm0 421c0,-21 6,-37 18,-49 11,-12 28,-18 50,-18l1093 0c20,0 36,6 49,17 13,11 19,27 19,50l0 78c0,19 -5,35 -17,48 -12,13 -28,20 -51,20l-1093 0c-20,0 -36,-6 -49,-17 -12,-12 -19,-29 -19,-51l0 -78zm0 423c0,-20 6,-37 18,-49 11,-13 28,-19 50,-19l1093 0c20,0 36,6 49,17 13,12 19,29 19,51l0 78c0,18 -5,35 -17,48 -12,12 -28,19 -51,19l-1093 0c-20,0 -36,-6 -49,-17 -12,-12 -19,-29 -19,-50l0 -78zm-1304 0c0,-20 6,-37 17,-49 12,-13 29,-19 51,-19l696 0c104,0 163,-9 178,-27 43,-28 65,-64 65,-106 0,-53 -32,-93 -95,-121 -13,-8 -62,-12 -148,-12l-468 0c-148,0 -245,-69 -290,-206 -6,-28 -9,-55 -9,-82l0 -3c0,-125 57,-214 172,-267 33,-13 72,-20 115,-20l880 0c19,0 35,6 48,18 12,11 18,28 18,50l0 77c0,19 -5,35 -16,48 -11,14 -28,20 -50,20l-759 0c-92,0 -143,10 -153,29 -14,11 -21,27 -21,48 0,38 28,62 85,71 19,3 52,5 101,5l471 0c146,0 251,66 315,200 18,43 27,90 27,142l0 5c0,132 -56,232 -169,302 -50,28 -106,42 -167,42l-826 0c-20,0 -37,-6 -49,-17 -13,-12 -19,-29 -19,-50l0 -78zm-287 -844c0,-20 6,-36 18,-49 11,-13 28,-19 50,-19l77 0c19,0 35,6 48,18 12,11 19,28 19,50l0 921c0,19 -6,35 -17,48 -11,13 -28,20 -50,20l-77 0c-20,0 -36,-6 -49,-17 -13,-12 -19,-29 -19,-51l0 -921z"/>
 </g>
</svg>
