<?xml version="1.0" encoding="UTF-8"?>
<!DOCTYPE svg PUBLIC "-//W3C//DTD SVG 1.1//EN" "http://www.w3.org/Graphics/SVG/1.1/DTD/svg11.dtd">
<!-- Creator: CorelDRAW X7 -->
<svg xmlns="http://www.w3.org/2000/svg" xml:space="preserve" width="152.458mm" height="22.1596mm" version="1.1" style="shape-rendering:geometricPrecision; text-rendering:geometricPrecision; image-rendering:optimizeQuality; fill-rule:evenodd; clip-rule:evenodd"
viewBox="0 0 15022 2183"
 xmlns:xlink="http://www.w3.org/1999/xlink">
 <defs>
  <style type="text/css">
   <![CDATA[
    .fil0 {fill:#065174;fill-rule:nonzero}
   ]]>
  </style>
 </defs>
 <g id="Layer_x0020_1">
  <metadata id="CorelCorpID_0Corel-Layer"/>
  <g id="_3003166543888">
   <path class="fil0" d="M318 0c110,0 196,81 256,243l571 1145c35,62 80,94 134,94 73,0 154,-120 243,-359 8,-31 13,-59 13,-84 0,-65 -57,-200 -169,-406 -162,-324 -243,-497 -243,-518l0 -28c8,-58 48,-87 118,-87l191 0c116,0 200,71 252,212 50,90 101,134 153,134 56,0 115,-65 175,-196 50,-100 121,-150 215,-150l200 0c70,0 110,29 118,87l0 16c0,33 -42,130 -128,290 -85,166 -150,298 -195,396 -44,98 -71,161 -79,190l-10 63c0,81 55,210 163,387 35,35 69,53 103,53 68,0 140,-95 215,-284l552 -1098c50,-67 111,-100 184,-100l200 0c54,0 92,21 115,62l3 25 0 28c0,11 -15,48 -45,113 -30,64 -76,157 -136,277l-773 1566c-50,75 -115,112 -194,112l-246 0c-112,0 -201,-86 -265,-259 -61,-120 -114,-180 -159,-180l-32 0c-58,0 -131,101 -218,305 -50,90 -117,134 -203,134l-249 0c-96,0 -169,-54 -219,-162 -600,-1210 -909,-1838 -926,-1884 -2,-4 -3,-11 -3,-22l0 -28c0,-47 37,-77 112,-87l206 0z"/>
   <path class="fil0" d="M3818 140c0,-41 12,-75 36,-101 24,-26 58,-39 104,-39l159 0c40,0 72,12 98,36 26,24 39,59 39,104l0 1903c0,40 -11,73 -34,100 -23,27 -57,40 -103,40l-159 0c-41,0 -75,-12 -101,-36 -26,-23 -39,-58 -39,-104l0 -1903z"/>
   <path class="fil0" d="M4410 1883c0,-41 12,-75 36,-101 24,-25 59,-38 105,-38l1438 0c214,0 337,-19 368,-57 89,-58 134,-132 134,-219 0,-109 -66,-192 -197,-248 -27,-17 -129,-25 -305,-25l-967 0c-306,0 -506,-143 -599,-428 -13,-56 -19,-112 -19,-168l0 -6c0,-258 119,-442 356,-552 68,-27 147,-41 237,-41l1818 0c40,0 72,12 98,36 26,24 39,59 39,104l0 159c0,40 -11,73 -34,100 -23,27 -57,41 -103,41l-1569 0c-189,0 -294,20 -315,59 -29,23 -43,56 -43,100 0,79 58,128 174,146 40,7 109,10 209,10l973 0c302,0 519,138 652,415 38,87 56,185 56,293l0 9c0,273 -116,481 -349,624 -104,58 -219,87 -346,87l-1706 0c-42,0 -76,-12 -102,-36 -26,-23 -39,-58 -39,-103l0 -161z"/>
   <path class="fil0" d="M7105 1883c0,-41 12,-75 36,-101 24,-25 59,-38 105,-38l2258 0c39,0 73,12 100,35 27,24 40,59 40,104l0 161c0,39 -12,72 -36,99 -24,27 -58,40 -104,40l-2258 0c-42,0 -76,-12 -102,-36 -26,-23 -39,-58 -39,-103l0 -161z"/>
   <path class="fil0" d="M7105 1009c0,-42 12,-75 36,-100 24,-25 59,-37 105,-37l2258 0c39,0 73,11 100,34 27,23 40,57 40,103l0 162c0,40 -12,73 -36,100 -24,27 -58,41 -104,41l-2258 0c-42,0 -76,-12 -102,-36 -26,-24 -39,-59 -39,-105l0 -162z"/>
   <path class="fil0" d="M7105 140c0,-41 12,-75 36,-101 24,-26 59,-39 105,-39l2258 0c41,0 75,12 101,36 26,24 39,59 39,104l0 159c0,40 -12,73 -36,100 -24,27 -58,41 -104,41l-2258 0c-40,0 -73,-12 -100,-36 -27,-24 -41,-59 -41,-105l0 -159z"/>
   <path class="fil0" d="M12333 2044c0,39 -12,72 -36,99 -24,27 -59,40 -105,40l-1338 0c-324,0 -598,-130 -823,-390 -158,-197 -237,-421 -237,-670l0 -63c0,-324 130,-598 390,-823 197,-158 421,-237 670,-237l1338 0c42,0 76,12 102,36 26,24 39,59 39,104l0 159c0,40 -12,73 -36,100 -24,27 -59,41 -105,41l-1063 0c-260,0 -416,19 -468,56 -67,19 -150,77 -250,175 -112,142 -168,282 -168,422 0,186 87,355 262,507 114,96 286,144 515,144l1172 0c40,0 73,12 100,35 27,24 41,59 41,104l0 161z"/>
   <path class="fil0" d="M12483 140c0,-41 12,-75 35,-101 24,-26 59,-39 105,-39l1806 0c272,0 460,131 564,393 19,62 29,127 29,193l0 22c0,81 -15,158 -43,229 -28,72 -68,135 -120,188 -52,53 -116,94 -193,124 -77,31 -163,46 -259,46l-1135 0c-96,0 -144,-54 -144,-163l0 -115c0,-108 48,-162 144,-162l882 0c196,0 306,-18 331,-53 35,-25 53,-61 53,-106 0,-67 -38,-113 -115,-137 -25,-13 -106,-19 -244,-19l-976 0c-148,0 -231,28 -249,84 -17,35 -25,71 -25,106 -2,358 -4,655 -4,891 0,236 0,414 0,534 0,34 -12,63 -37,89 -25,26 -59,39 -103,39l-162 0c-42,0 -75,-12 -101,-36 -26,-23 -39,-58 -39,-104l0 -1903z"/>
  </g>
 </g>
</svg>
