<?xml version="1.0" encoding="UTF-8"?>
<!DOCTYPE svg PUBLIC "-//W3C//DTD SVG 1.1//EN" "http://www.w3.org/Graphics/SVG/1.1/DTD/svg11.dtd">
<!-- Creator: CorelDRAW X7 -->
<svg xmlns="http://www.w3.org/2000/svg" xml:space="preserve" width="207.83mm" height="206.57mm" version="1.1" style="shape-rendering:geometricPrecision; text-rendering:geometricPrecision; image-rendering:optimizeQuality; fill-rule:evenodd; clip-rule:evenodd"
viewBox="0 0 15605 15510"
 xmlns:xlink="http://www.w3.org/1999/xlink">
 <defs>
  <style type="text/css">
   <![CDATA[
    .fil1 {fill:#4DBC70}
    .fil0 {fill:#8E9598}
   ]]>
  </style>
 </defs>
 <g id="Layer_x0020_1">
  <metadata id="CorelCorpID_0Corel-Layer"/>
  <g id="grund_design">
   <g>
    <polygon class="fil0" points="7153,2024 7805,1545 8457,2024 8210,1251 8872,778 8052,778 7805,0 7553,778 6738,778 7400,1251 "/>
    <polygon class="fil0" points="3784,2928 4436,2454 5088,2928 4835,2160 5498,1682 4683,1682 4436,904 4184,1687 3369,1682 4031,2160 "/>
    <polygon class="fil0" points="1966,3374 1719,4157 904,4157 1566,4630 1319,5398 1966,4925 2617,5398 2370,4630 3033,4157 2218,4157 "/>
    <polygon class="fil0" points="1062,8289 1713,8767 1466,7999 2129,7521 1314,7521 1062,6743 815,7521 0,7521 662,7999 410,8767 "/>
    <polygon class="fil0" points="2218,10901 1966,10118 1719,10901 904,10901 1566,11374 1319,12141 1966,11668 2617,12141 2370,11374 3033,10901 "/>
    <polygon class="fil0" points="4688,13371 4441,12593 4189,13371 3374,13371 4037,13844 3789,14611 4441,14138 5093,14611 4841,13844 5503,13371 "/>
    <polygon class="fil0" points="8057,14264 7805,13487 7558,14264 6743,14264 7400,14737 7153,15510 7805,15032 8457,15510 8210,14737 8872,14264 "/>
    <polygon class="fil0" points="11421,13371 11174,12593 10922,13371 10107,13371 10769,13844 10522,14611 11174,14138 11826,14611 11573,13844 12236,13371 "/>
    <polygon class="fil0" points="13891,10901 13644,10118 13392,10901 12577,10901 13240,11374 12993,12141 13644,11668 14296,12141 14044,11374 14706,10901 "/>
    <polygon class="fil0" points="15605,7511 14790,7511 14538,6733 14291,7511 13471,7511 14133,7989 13886,8756 14538,8278 15189,8756 14942,7989 "/>
    <polygon class="fil0" points="12993,5387 13644,4914 14296,5387 14044,4620 14706,4147 13891,4147 13644,3369 13392,4147 12577,4147 13240,4620 "/>
    <polygon class="fil0" points="11179,904 10932,1687 10118,1682 10780,2160 10528,2928 11184,2454 11831,2928 11584,2160 12246,1682 11432,1682 "/>
   </g>
  </g>
  <g id="GO">
   <g>
    <g>
     <path class="fil1" d="M8057 9398c-79,0 -157,-32 -220,-90l-1561 -1561c-121,-121 -121,-315 0,-436l399 -394c116,-116 321,-116 436,0l952 951 3447 -3143c58,-58 137,-89 221,-89 0,0 0,0 0,0 84,0 163,31 221,89l394 394c121,121 121,321 0,442l-4068 3758c-63,47 -142,79 -221,79z"/>
    </g>
    <g>
     <path class="fil0" d="M7794 10669c-1545,0 -2806,-1261 -2806,-2806 0,-1545 1261,-2807 2806,-2807 731,0 1425,279 1950,783l-152 158c-484,-468 -1125,-725 -1798,-725 -1429,0 -2591,1161 -2591,2591 0,1429 1162,2591 2591,2591 1409,0 2550,-1104 2586,-2512l216 5c-42,1524 -1272,2722 -2802,2722z"/>
    </g>
    <g>
     <path class="fil0" d="M7794 11631c-2076,0 -3768,-1692 -3768,-3768 0,-2076 1692,-3769 3768,-3769 989,0 1919,379 2628,1067l-152 158c-668,-647 -1545,-1004 -2476,-1004 -1960,0 -3553,1593 -3553,3553 0,1960 1593,3553 3553,3553 1961,0 3553,-1593 3553,-3553 0,-263 -26,-520 -84,-773l211 -47c57,268 89,541 89,820 0,2071 -1692,3763 -3769,3763z"/>
    </g>
   </g>
  </g>
 </g>
</svg>
