<?xml version="1.0" encoding="utf-8"?>
<!-- Generator: Adobe Illustrator 19.2.1, SVG Export Plug-In . SVG Version: 6.00 Build 0)  -->
<svg version="1.1" id="layer" xmlns="http://www.w3.org/2000/svg" xmlns:xlink="http://www.w3.org/1999/xlink" x="0px" y="0px"
	 viewBox="0 0 652 652" style="enable-background:new 0 0 652 652;" xml:space="preserve">
<style type="text/css">
	.st0{fill-rule:evenodd;clip-rule:evenodd;fill:#003976;}
</style>
<g>
	<path class="st0" d="M45.6,273.8H50c3.1,0,14,3,14,3h1.9c0.7,0,1.9-0.6,2.3-0.9c0.3,0.1,0.6,0.2,0.9,0.5l-18.4,13
		c0,0-5.6,2.8-5.6,5.4v32.8L27,340.2c0.3-1.7,2.6-3.3,2.6-5.8V302c0-2.5,17.5-11.6,17.5-14.2c0-2.6-10.2-4.7-10.2-4.7
		c-3.3-0.1-4.6-0.1-7.9,0c-3.2,0.1-6.9,2.2-8.1,2.1C24.6,282.6,35.3,273.8,45.6,273.8 M82.8,274.5c2.8,0,4.5,3,9.3,9.3
		c1.2,1.6,6.8,8.4,6.8,11.7v2.6c0,6.6-17.5,13.3-17.5,16.1c0,1.9,9.2,1,13.3,3.7c3.9,2.6,5.6,8.1,5.6,11.2v7.9
		c0,4.7-6.5,6.5-14.4,12.6c-3.5,2.7-15.4,10.7-16.3,10.7c0,0-13.7-7.5-20.3-7.5h-8.8c-3.7,0-12.8,3.3-13.5,3.3
		c0,0,13.8-13.5,27.7-13.5H64c1.9,0,8.5,2.7,10.2,3.3v-59.2c0-0.6-0.7-1.6-1.9-1.6c-2.6,0-4.4,4.7-4.4,4.9v35.2
		c0,1.6-6.1,6.3-9.3,8.2c-4.9,2.8-8,5.5-10.9,7v-0.7c0,0,2.6-2.8,2.6-4.4v-38.2c0-0.5,4.1-5.6,15.4-12.1
		C72.2,281,78.8,274.5,82.8,274.5 M77.5,290.6c0,0,7.5,8.1,7.5,13c0,3.7-2.9,5.2-7.5,7.9V290.6z M77.5,318.1
		c0.7,0.2,4.9,2.7,4.9,4.4v26.8c-1.2,0.5-0.2,0-0.9,0c-1.5,0-4-1.2-4-2.6V318.1z M255.4,308.1l16.5,8.2v35.9l-15.6,7.7l-16.8-7.2
		v-37.5L255.4,308.1z M179,307l10,10v30.7l4.7,4.7l-7.7,7.5l-8.2-7.7v-28.7c-0.1-0.1-5.1-5-6.1-5.4l-5.6,5.1V348l4.2,4.2l-7.9,7.7
		l-7.2-7v-31c0,0-3.4-2.9-4.9-4.7l9.8-10l9.6,9.1L179,307z M217.4,308.3l18.2,7.7c-0.8,1.1-6.4,5.1-8.4,5.6c0,0-14.8-5.8-15.1-5.8
		V346l12.5,6.2c0,0,7.2-2.5,8.9-2.5c0.2,0,0.5,0.1,0.9,0v0.7l-14.2,9.3h-1.9l-17.9-8.2v-35.2L217.4,308.3z M125.7,307.5
		c11.3,5.7,16.3,6.4,16.3,8.8v29.8l7.2,7.2l-6.7,6.5c-4.9-4-6.8-5.8-6.8-5.8l-12.4,6.2l-16.9-7.8v-19.6l16.5-8.2l9.1,3.7v-8.2
		l-14.5-5l-7.3,0.9l-0.3-1.2L125.7,307.5z M250.4,315.1l10.8,5.1v31.9l-10.9-4.9L250.4,315.1z M116.6,331.5l15.4,7.7v14.4l-15.4-7.1
		V331.5z M328.8,286.4c0.7,0,3.8,1.2,8.8,3.7c2.8,1.4,7.7,2.4,7.7,4.9v57.8l-15.4,7.2l-17-8.2v-36.6l16.3-7.2
		c0.6,0.1,5.8,2.1,5.8,2.1v-11.6l-13.6-5.8c-2.2,0.1-4.8,2.3-7.5,2.7l0.6-2.3C314.6,293.2,326.8,286.4,328.8,286.4 M371.9,307.9
		l15.1,16.8l-22.1,16.3v4.4c0,0.9,13,6.9,13,6.9s6.5-4.4,9.3-2.7c-0.2,0.2-15.6,10.2-15.6,10.2l-16.5-7.2v-36.8L371.9,307.9z
		 M323.6,315.1l11.2,5.1v31.9h-0.2l-10.9-4.9V315.1z M365.1,315.8l11.1,11.6l-11.1,8.2V315.8z M575.2,348.2l4.2,4l-8.4,7.9l-7.9-7.9
		v-53.6l12.1-11.9V348.2z M510.7,285.2V319l12.1-11.9l9.1,9.1V359l-11.4,11.2h-0.2V322l-4.4-4.2l-5.1,4.4v25.4l4.4,4.2v0.2l-8.1,8.2
		l-7.9-7.9v-55.4l11.6-11.4V285.2z M545.3,285.2h0.2l7.9,7.9v0.2l-8.2,8.2l-8.1-8.2L545.3,285.2z M602.6,308.4
		c0.4,0,15.1,16.1,15.4,16.8l-22.1,15.6v6.3l12.5,5.7c0,0,6.6-0.9,8.9-2.9l3.4,0.8c-0.3,0.4-15.4,9.6-18,9.6
		c-0.6,0-11.9-4.3-16.5-7.5v-35.6C586.1,315.7,602.6,308.4,602.6,308.4 M545.6,307.1h0.2l7.2,7.2v33.1l4.4,4.2l-8.4,8.2l-7.9-7.9
		v-33.1l-3.7-3.5L545.6,307.1z M596.1,316.3l10.6,10.9l-10.5,6.8L596.1,316.3z M465.6,279.2h0.9c-0.7,1.9-13.3,7.9-18.2,13.5
		c-7.5,8.6-12.5,13.3-11.6,26.7c0.5,7.8,6.6,19.3,13.7,23.4c2.2,1.3,9.1,5.1,15.6,5.4c9.4,0.4,5.7-1.5,7-0.7v-56.4
		c0-0.7-1.7-4.4-3.3-4.4c-0.5,0-1.2,0.9-1.2,1.4V327c0,1.5-1.4,3.5-7.9,7.9c-6.7,4.5-8.8,6-9.5,5.8c0.2-0.4,1.2-2,1.6-2.3v-40.5
		c0-4,5.9-6.4,10.9-10.3c8.4-6.4,12.9-7.9,13-7.9h2.1c5.6,0,9.1,6.8,9.8,7.5c0.1,0.1,1.6,0.6,2.1,1.2h3.3c0.9,0,3.3-1.4,4.7-1.2
		c-3.8,3.3-15.8,10.9-16.1,10.9h-1.9c-0.9,0-2.2-1.3-3.7-2.1v50.8c0.7,0.1,0.6,0,0.9,0c2.3,0,10.8-6.1,11.2-6.7h0.7v1.6
		c-0.1,0.1-3.5,6.5-3.5,6.5c-7.3,8.3-15.4,12.4-27,12.5c-20.3,0.1-34.8-14.6-36.3-37.4c-1.5-22.7,14.5-41.4,33.3-42.6
		c2.7-0.2,6.1,0,6.5,0C462.8,280.6,465.4,279.4,465.6,279.2"/>
</g>
</svg>
