<?xml version="1.0" encoding="UTF-8"?>
<!DOCTYPE svg PUBLIC "-//W3C//DTD SVG 1.1//EN" "http://www.w3.org/Graphics/SVG/1.1/DTD/svg11.dtd">
<!-- Creator: CorelDRAW X7 -->
<svg xmlns="http://www.w3.org/2000/svg" xml:space="preserve" width="334.476mm" height="54.7486mm" version="1.1" style="shape-rendering:geometricPrecision; text-rendering:geometricPrecision; image-rendering:optimizeQuality; fill-rule:evenodd; clip-rule:evenodd"
viewBox="0 0 7871 1288"
 xmlns:xlink="http://www.w3.org/1999/xlink">
 <defs>
  <style type="text/css">
   <![CDATA[
    .fil0 {fill:none}
    .fil1 {fill:#FEFEFE;fill-rule:nonzero}
   ]]>
  </style>
 </defs>
 <g id="Layer_x0020_1">
  <metadata id="CorelCorpID_0Corel-Layer"/>
  <rect class="fil0" width="7871" height="1288"/>
  <path class="fil1" d="M225 81c57,0 101,42 132,125l294 591c19,32 42,48 69,48 38,0 80,-61 126,-185 4,-16 6,-30 6,-43 0,-33 -29,-103 -86,-209 -84,-168 -126,-257 -126,-267l0 -15c4,-30 25,-45 61,-45l98 0c60,0 104,36 131,109 25,47 52,70 79,70 28,0 59,-34 90,-102 25,-51 62,-77 111,-77l103 0c36,0 56,15 61,45l0 8c0,17 -22,67 -66,150 -44,86 -78,154 -101,204 -23,51 -37,83 -41,98l-5 32c0,42 28,109 84,200 18,18 36,27 53,27 36,0 73,-49 111,-146l285 -567c26,-34 57,-51 95,-51l103 0c28,0 48,11 59,32l2 13 0 15c0,5 -8,24 -23,57 -16,34 -39,81 -70,144l-399 807c-26,39 -59,58 -100,58l-127 0c-58,0 -104,-44 -137,-133 -31,-62 -58,-94 -82,-94l-16 0c-30,0 -68,53 -113,158 -26,46 -60,69 -104,69l-129 0c-49,0 -87,-28 -113,-83 -310,-625 -469,-949 -478,-972 -1,-2 -1,-6 -1,-11l0 -15c0,-25 19,-40 58,-45l106 0zm6275 72c0,-21 6,-38 19,-52 12,-13 30,-20 54,-20l931 0c141,0 238,68 292,203 9,32 14,65 14,99l0 12c0,42 -7,81 -22,118 -14,37 -35,69 -62,97 -26,27 -60,48 -99,64 -40,15 -85,23 -134,23l-586 0c-49,0 -74,-28 -74,-83l0 -60c0,-56 25,-84 74,-84l456 0c101,0 157,-9 170,-27 19,-13 28,-31 28,-55 0,-34 -20,-58 -60,-70 -13,-7 -55,-10 -125,-10l-504 0c-76,0 -119,14 -129,43 -8,19 -13,37 -13,55 -1,185 -1,338 -1,459 0,122 0,214 0,276 0,18 -7,33 -20,46 -12,14 -30,20 -53,20l-83 0c-22,0 -39,-6 -53,-18 -13,-12 -20,-30 -20,-54l0 -982zm-77 982c0,21 -6,38 -18,52 -13,13 -31,20 -54,20l-691 0c-167,0 -309,-67 -424,-201 -82,-102 -123,-217 -123,-346l0 -32c0,-167 67,-309 201,-425 102,-81 218,-122 346,-122l691 0c21,0 39,6 52,18 13,13 20,31 20,54l0 82c0,21 -6,38 -18,52 -13,14 -31,21 -54,21l-549 0c-134,0 -215,10 -241,29 -35,9 -78,40 -129,90 -58,73 -87,146 -87,218 0,96 45,183 135,261 59,50 148,74 266,74l605 0c20,0 37,7 51,19 14,12 21,30 21,53l0 83zm-2697 -982c0,-21 6,-38 19,-52 12,-13 30,-20 54,-20l1165 0c21,0 39,6 52,18 13,13 20,31 20,54l0 82c0,21 -6,38 -18,52 -13,14 -31,21 -54,21l-1165 0c-21,0 -38,-6 -52,-19 -14,-12 -21,-30 -21,-54l0 -82zm0 449c0,-22 6,-39 19,-52 12,-13 30,-19 54,-19l1165 0c20,0 37,6 51,17 14,12 21,30 21,54l0 83c0,21 -6,38 -18,52 -13,14 -31,21 -54,21l-1165 0c-22,0 -39,-7 -53,-19 -13,-12 -20,-30 -20,-54l0 -83zm0 450c0,-21 6,-38 19,-52 12,-13 30,-20 54,-20l1165 0c20,0 37,7 51,19 14,12 21,30 21,53l0 83c0,21 -6,38 -18,52 -13,13 -31,20 -54,20l-1165 0c-22,0 -39,-6 -53,-18 -13,-12 -20,-30 -20,-54l0 -83zm-1390 0c0,-21 6,-38 19,-52 12,-13 30,-20 53,-20l742 0c111,0 174,-9 190,-29 46,-30 69,-68 69,-113 0,-56 -34,-99 -101,-128 -14,-8 -67,-13 -158,-13l-499 0c-157,0 -260,-73 -309,-220 -6,-29 -9,-58 -9,-87l0 -3c0,-133 61,-228 183,-285 36,-14 76,-21 123,-21l938 0c20,0 37,6 50,18 14,13 20,31 20,54l0 82c0,21 -6,38 -17,52 -12,14 -30,21 -53,21l-810 0c-97,0 -152,10 -162,30 -15,12 -23,29 -23,52 0,41 30,66 90,76 21,3 57,4 108,4l502 0c156,0 268,72 336,214 20,45 29,96 29,152l0 4c0,141 -60,248 -180,322 -53,30 -113,45 -178,45l-881 0c-21,0 -38,-6 -52,-18 -13,-12 -20,-30 -20,-54l0 -83zm-306 -899c0,-21 6,-38 19,-52 12,-13 30,-20 54,-20l82 0c20,0 37,6 50,18 14,13 21,31 21,54l0 982c0,20 -6,37 -18,51 -12,14 -30,21 -53,21l-82 0c-22,0 -39,-6 -53,-18 -13,-12 -20,-30 -20,-54l0 -982z"/>
 </g>
</svg>
