<?xml version="1.0" encoding="utf-8"?>
<!-- Generator: Adobe Illustrator 19.0.0, SVG Export Plug-In . SVG Version: 6.00 Build 0)  -->
<svg version="1.1" id="Layer_1" xmlns="http://www.w3.org/2000/svg" xmlns:xlink="http://www.w3.org/1999/xlink" x="0px" y="0px"
	 viewBox="0 0 1009.5 270.3" style="enable-background:new 0 0 1009.5 270.3;" xml:space="preserve">
<style type="text/css">
	.st0{fill:#3595D1;}
	.st1{fill:url(#SVGID_1_);}
	.st2{fill:url(#SVGID_2_);}
	.st3{fill:url(#SVGID_3_);}
	.st4{fill:url(#SVGID_4_);}
	.st5{fill:url(#SVGID_5_);}
	.st6{fill:url(#SVGID_6_);}
	.st7{fill:url(#SVGID_7_);}
	.st8{fill:url(#SVGID_8_);}
	.st9{fill:url(#SVGID_9_);}
	.st10{fill:#3E484D;}
	.st11{fill:#EB1E2E;}
</style>
<g>
	<g>
		<path class="st0" d="M536.6,223.2c5.6-2.5,12.3-3.9,18.2-1.5c3.4,1.4,5,5.2,5,8.7c0.3,8,0,16.1,0.1,24.1c-1.3,0-2.6,0-3.9,0
			c-0.3-1.6-0.6-3.1-0.9-4.7c-4.3,6.1-13.7,7.9-19.5,3c-4.4-4.2-3.6-12.8,2-15.6c5.3-2.7,11.5-2.6,17.3-2.7
			c-0.1-3.2,0.2-7.4-3.1-9.1c-4.5-2.1-9.4-0.1-13.7,1.7C537.7,225.7,537.1,224.4,536.6,223.2z M541.7,240.3c-4.3,1.7-4.8,9-0.3,10.8
			c3.9,1.3,8.7,0.4,11.4-2.8c2.3-2.7,2-6.4,2-9.7C550.4,238.6,545.8,238.5,541.7,240.3z"/>
	</g>
	<path class="st0" d="M753,222.4c5.2-2.8,11.2-2,16.7-0.7c-0.4,1.5-0.8,2.9-1.2,4.4c-4.3-1.6-9.6-2.7-13.6,0.3
		c-3.5,2.9-4.1,7.9-4.1,12.1c0,4.4,1,9.7,5.2,12c4.2,2.2,9.2,0.7,13.4-0.6c-0.5,1.4,0.9,4.5-1.5,4.6c-5.8,1.8-12.8,1.6-17.6-2.6
		c-4.2-3.8-5.1-10-4.8-15.4C745.7,231,748,225.1,753,222.4z"/>
	<g>
		<path class="st0" d="M787.2,220.7c6-1.1,12.9,1.4,15.9,7c3.4,6.3,3.3,14.5,0,20.9c-4.9,8.7-18.8,9.4-24.9,1.7
			c-4.2-5.3-4.4-12.8-2.8-19.1C776.7,225.6,781.6,221.3,787.2,220.7z M786.4,225c-4,1.3-6,5.5-6.3,9.4c-0.4,4.7-0.4,10.1,2.8,14
			c4.1,4.9,13.4,3.9,15.9-2.2c2.1-5.2,2.1-11.3,0-16.5C796.8,225.1,790.9,223.4,786.4,225z"/>
	</g>
	<path class="st0" d="M814.3,220.6c1.4,0,2.8,0,4.3,0c0.2,1.6,0.4,3.2,0.6,4.9c4.9-6.5,16.4-7,20.8,0.3c4.2-5.4,12.3-6.8,18.1-3.5
		c3.5,2.1,4.2,6.5,4.3,10.2c0,7.4,0,14.7,0,22.1c-1.7,0-3.4-0.1-5.1-0.1c0.1-7,0-14,0.1-21c-0.1-2.3-0.1-4.8-1.5-6.7
		c-2.4-2.9-6.9-2.7-10.1-1.4c-3.6,1.5-4.7,5.7-4.8,9.2c-0.1,6.7,0,13.3,0,20c-1.7,0-3.4,0-5.1,0c0-7.4,0-14.7,0-22
		c0-2.6-0.5-5.6-3-7c-3.3-1.7-7.8-1.3-10.5,1.3c-2.5,2.6-2.7,6.4-2.9,9.8c0,6,0,12,0,18c-1.7,0-3.4-0.1-5.1-0.1
		C814.4,243.1,814.4,231.8,814.3,220.6z"/>
	<g>
		<path class="st0" d="M872.3,220.6c1.4,0,2.9,0,4.3,0c0.2,1.7,0.3,3.4,0.5,5.1c3.6-4.3,9.6-6.4,15-4.6c5.6,1.3,9,6.9,9.6,12.4
			c0.8,6.2,0.4,13.2-3.9,18.1c-5.4,5.9-15.8,5.2-20.7-1.1c0.5,6.4,0.2,12.8,0.3,19.1c-1.7,0-3.5-0.1-5.2-0.2
			C872.5,253.1,872.4,236.8,872.3,220.6z M883.4,225c-2.9,0.8-4.9,3.5-5.4,6.4c-1,4.8-0.8,9.9,0.6,14.6c2,6.1,11.3,7.5,15.2,2.5
			c2.9-3.7,3.1-8.7,2.8-13.2c-0.2-3.5-1.3-7.1-4.2-9.3C890,224.1,886.4,224.1,883.4,225z"/>
	</g>
	<g>
		<path class="st0" d="M912.5,223.2c5.8-2.6,12.9-4.1,18.9-1.2c3.4,1.8,4.5,5.8,4.5,9.4c0.2,7.7,0,15.4,0.1,23.1c-1.3,0-2.6,0-3.9,0
			c-0.3-1.5-0.6-3.1-0.9-4.6c-2.2,1.9-4.2,4.4-7.1,5.1c-4.1,1.1-9.1,0.8-12.4-2.1c-4.5-4.2-3.6-12.8,2.1-15.6
			c5.3-2.7,11.4-2.5,17.2-2.7c-0.1-3.2,0.2-7.4-3-9.1c-4.4-2.1-9.4-0.3-13.5,1.7C913.8,225.8,913.2,224.5,912.5,223.2z M917.7,240.3
			c-4.1,1.6-4.8,8.4-0.8,10.5c3.7,1.7,8.5,0.8,11.5-2c2.7-2.7,2.4-6.7,2.5-10.2C926.4,238.6,921.8,238.5,917.7,240.3z"/>
	</g>
	<path class="st0" d="M945.3,220.6c1.4,0,2.8,0,4.3,0c0.3,1.7,0.5,3.3,0.8,5c4.3-5.5,12.6-6.6,18.6-3.3c3.4,1.9,4.5,5.9,4.5,9.5
		c0.1,7.5-0.1,15,0.1,22.6c-1.7,0.1-3.5,0.1-5.1,0.1c0-7.4,0-14.8,0-22.1c-0.1-2.6-0.8-5.7-3.4-7c-3.3-1.5-7.5-1.3-10.6,0.6
		c-3.1,2-3.8,5.9-4,9.3c-0.1,6.4,0,12.8,0,19.2c-1.7,0-3.4-0.1-5.1-0.1C945.4,243.1,945.5,231.9,945.3,220.6z"/>
	<path class="st0" d="M979,220.5c1.8,0,3.7,0,5.6,0.1c3.4,9.7,7.9,19.1,10.4,29.1c3-9.8,6.8-19.4,10.1-29.1c1.6,0,3.2-0.1,4.8-0.1
		v1.8c-4.3,11.7-8.9,23.3-13.2,35.1c-1.4,3.9-3.1,8-6.5,10.5c-3.2,2.2-7.2,2-10.8,1.3c0-0.9,0-2.8,0-3.7c2.9,0.2,6.4,0.6,8.7-1.6
		c2.4-2.5,3.2-6,4.5-9.1C988,243.3,983.6,231.9,979,220.5z"/>
</g>
<g>
	<linearGradient id="SVGID_1_" gradientUnits="userSpaceOnUse" x1="15.29" y1="-1.1667" x2="15.29" y2="170.8346">
		<stop  offset="0" style="stop-color:#10B1E4"/>
		<stop  offset="1" style="stop-color:#418BCA"/>
	</linearGradient>
	<path class="st1" d="M0,0h30.6c-2.6,3-6.4,4.6-9.5,7C12.3,13.4,5.6,22.2,0,31.4V0z"/>
	<g>
		<linearGradient id="SVGID_2_" gradientUnits="userSpaceOnUse" x1="227.5873" y1="-1.1667" x2="227.5873" y2="170.8346">
			<stop  offset="0" style="stop-color:#10B1E4"/>
			<stop  offset="1" style="stop-color:#418BCA"/>
		</linearGradient>
		<path class="st2" d="M269.3,0h29.4c0.5,4.3,0.2,8.7,0.2,13c0,43.5,0,86.9-0.1,130.4c-9.9,0-19.7,0-29.6,0c0-4.1,0-8.3,0-12.4
			c-18.6,13.5-43.9,17.2-65.5,9.3c-18.8-6.6-34.5-21.4-42.2-39.8c-5.3-12.2-6.4-25.8-4.7-38.9c2.3-14.7,9.3-28.5,19.7-39.1
			c13.1-13.4,31.6-21.4,50.4-21.4C242,0.9,257,5.8,269.3,14.5C269.3,9.7,269.3,4.8,269.3,0z M217.6,31.8
			c-12.5,3.2-23.2,12.5-28.1,24.4c-7.2,16.5-2.3,37.3,11.8,48.5c9.4,8,22.7,11.5,34.8,8.8c13-2.5,24.4-11.8,29.6-24
			c3.5-8.2,4.7-17.6,2.6-26.4c-2.4-11.2-9.7-21.2-19.6-26.9C239.4,30.7,228,29,217.6,31.8z"/>
	</g>
	<linearGradient id="SVGID_3_" gradientUnits="userSpaceOnUse" x1="591.5958" y1="-1.1667" x2="591.5958" y2="170.8346">
		<stop  offset="0" style="stop-color:#10B1E4"/>
		<stop  offset="1" style="stop-color:#418BCA"/>
	</linearGradient>
	<path class="st3" d="M576.7,0h29.8c0.1,10.1,0.1,20.3,0,30.4C599.6,17.7,589.1,7.2,576.7,0z"/>
	<linearGradient id="SVGID_4_" gradientUnits="userSpaceOnUse" x1="71.7533" y1="-1.1667" x2="71.7533" y2="170.8346">
		<stop  offset="0" style="stop-color:#10B1E4"/>
		<stop  offset="1" style="stop-color:#418BCA"/>
	</linearGradient>
	<path class="st4" d="M46.9,5.6c13.3-5,28.1-5.8,41.8-2.5c16.3,3.8,31.2,13.5,41.1,27.1c9.4,12.5,14.1,28.3,13.7,43.8
		c-0.4,13.6-4.7,27-12.3,38.2c-10.7,15.9-28.1,27.2-47.1,30.4c-14.3,2.5-29.3,0.6-42.6-5.3c0-11.9,0-23.9,0-35.8
		c9.7,10.2,24.8,15,38.5,11.9c14.1-2.9,26.3-13.7,30.8-27.4c3.6-10.5,2.7-22.4-2.4-32.2c-8.7-17.6-30.7-27-49.4-20.8
		c-15.4,4.6-27.3,19-28.8,35C30,73.7,29.8,79.3,30,85c-0.2,38.3-0.2,76.6-0.2,114.9c-10-0.1-19.9,0.1-29.9-0.1V69.7
		c0.7-8.2,2.3-16.3,5.5-23.9C12.9,27.5,28.3,12.5,46.9,5.6z"/>
	<linearGradient id="SVGID_5_" gradientUnits="userSpaceOnUse" x1="381.4922" y1="-1.1667" x2="381.4922" y2="170.8346">
		<stop  offset="0" style="stop-color:#10B1E4"/>
		<stop  offset="1" style="stop-color:#418BCA"/>
	</linearGradient>
	<path class="st5" d="M312.4,1.1c9.9,0,19.7,0,29.6,0c0.3,25-0.3,49.9,0,74.9c0.3,9.7,4,19.2,10.8,26.2c7.4,7.9,18.3,12.5,29.1,12.2
		c11.4-0.2,22.6-5.8,29.7-14.8c5.1-6.1,7.6-13.8,8.6-21.5c0.1-25.7,0-51.3,0.1-76.9c10.1,0,20.2,0,30.3,0c0,37,0,73.9,0,110.9
		c-0.3,11.9,1,24-1.9,35.7c-7,31.5-37.8,55.8-70.2,54.9c0-9.6,0-19.3,0-28.9c22.5,0.7,43.4-19.4,43.1-42
		c-14.1,9.4-31.5,14.5-48.4,12.1c-17.3-1.9-33.6-10.9-44.7-24.2C318,107.3,312.1,91.2,312.4,75C312.4,50.4,312.4,25.7,312.4,1.1z"/>
	<linearGradient id="SVGID_6_" gradientUnits="userSpaceOnUse" x1="534.8466" y1="-1.1667" x2="534.8466" y2="170.8346">
		<stop  offset="0" style="stop-color:#10B1E4"/>
		<stop  offset="1" style="stop-color:#418BCA"/>
	</linearGradient>
	<path class="st6" d="M517,3.4c18.4-4.7,38.6-1.8,54.9,8c18.8,11,32.3,31,34.6,52.7c0,22,0.2,44-0.1,65.9
		c-0.7,33.7-28.1,64.5-61.3,69.6c-4.2,0.8-8.5,1-12.8,0.9c0.1-9.9,0-19.7,0.1-29.6c13.2,0.3,26.2-5.9,34.4-16.2
		c6.2-7.4,9.7-17.1,9.7-26.7c0-16.7,0-33.4,0-50.1c0-5,0.3-10-0.9-14.9c-2.8-13.4-12.8-24.8-25.5-29.7c-9.2-3.6-19.6-3.8-28.9-0.4
		c-11.2,4-20.5,13-24.8,24.1c-4.6,11.4-3.8,24.9,2.2,35.6c6,11,17.1,19.2,29.5,21.2c13.5,2.5,27.8-2.6,37.3-12.3c0,12-0.1,24,0,36
		c-12.4,5.9-26.7,8.3-40.3,6.2c-18.6-2.3-35.8-12.7-47.2-27.5c-8.7-11.5-14-25.7-14.5-40.1c-0.8-16.3,4.1-32.8,13.9-45.8
		C486.8,17,501.1,7.4,517,3.4z"/>
	<linearGradient id="SVGID_7_" gradientUnits="userSpaceOnUse" x1="688.6209" y1="-1.1667" x2="688.6209" y2="170.8346">
		<stop  offset="0" style="stop-color:#10B1E4"/>
		<stop  offset="1" style="stop-color:#418BCA"/>
	</linearGradient>
	<path class="st7" d="M619.6,1.1c10,0,20,0,30,0c0,25.3,0,50.6,0,75.9c0.3,11.8,6.6,23.4,16.4,30.2c8.6,6.1,19.7,8.7,30,6.5
		c17.3-3.1,31.3-19.1,31.6-36.7c0-25.3,0-50.5,0-75.8c10-0.1,20,0,30-0.1c0.1,47.8,0,95.6,0,143.4c-9.8,0-19.6-0.1-29.4,0
		c0-4.1,0-8.1,0-12.1c-13.5,8.9-30,13.6-46.2,11.7c-16.7-1.6-32.6-9.6-44-22c-10.4-11.2-16.7-25.9-18.1-41.1
		C619.3,54.4,619.8,27.8,619.6,1.1z"/>
	<linearGradient id="SVGID_8_" gradientUnits="userSpaceOnUse" x1="814.9711" y1="-1.1667" x2="814.9711" y2="170.8346">
		<stop  offset="0" style="stop-color:#10B1E4"/>
		<stop  offset="1" style="stop-color:#418BCA"/>
	</linearGradient>
	<path class="st8" d="M827.1,2.5c10.7-2.3,21.9-1.8,32.6,0.6c0,10.5,0,20.9,0,31.4c-10.2-4.8-22.3-5.4-32.8-1.2
		c-15.5,5.7-26.6,21.3-27.1,37.8c0,24.6,0,49.1,0,73.7c-9.8,0-19.7,0-29.5,0c0-47.7,0-95.4,0-143.1c9.9,0,19.7,0,29.6,0
		c0,4.2,0,8.4,0,12.5C808.3,8.9,817.3,4.4,827.1,2.5z"/>
	<linearGradient id="SVGID_9_" gradientUnits="userSpaceOnUse" x1="940.84" y1="-1.1667" x2="940.84" y2="170.8346">
		<stop  offset="0" style="stop-color:#10B1E4"/>
		<stop  offset="1" style="stop-color:#418BCA"/>
	</linearGradient>
	<path class="st9" d="M871.7,1.1c9.9-0.1,19.8,0,29.8,0c0,25,0,50,0,74.9c0,16,11.1,31.1,26.3,36.2c11.7,4.3,25.3,2.1,35.4-5.1
		c8.7-6.1,14.7-15.9,16.2-26.3c0.5-4.2,0.3-8.5,0.3-12.8c0-22.3,0-44.6,0-66.9c10.1,0.1,20.3-0.3,30.5,0.2v71.8
		c-0.4,2.6-0.5,5.2-0.5,7.8c0.1,21.2,0,42.3,0,63.5c-9.9,0-19.8,0-29.7,0c0-4,0-8,0-12c-14.2,9.5-31.9,13.9-48.8,11.2
		c-15.2-2-29.5-9.6-40.1-20.6c-12.1-12.5-19.1-29.7-19.2-47.1C871.7,51,871.7,26.1,871.7,1.1z"/>
</g>
<g>
	<path class="st10" d="M729.5,208.1l0.5-2.5H729l0.1-0.3h2.2l-0.1,0.3h-0.9l-0.5,2.5H729.5z"/>
	<path class="st10" d="M731.1,208.1l0.6-2.8h0.5l0.3,1.8c0,0.2,0.1,0.5,0.1,0.7c0.1-0.2,0.2-0.4,0.4-0.8l1-1.8h0.5l-0.6,2.8h-0.4
		l0.3-1.4c0.1-0.3,0.2-0.7,0.3-1.1c-0.1,0.2-0.2,0.4-0.3,0.6l-1.1,1.8h-0.4l-0.3-1.8c0-0.2,0-0.4-0.1-0.6c0,0.2-0.1,0.4-0.1,0.6
		l-0.4,1.8H731.1z"/>
</g>
<g>
	<g>
		<path class="st10" d="M626.1,211.5c5.3-0.4,10.6-0.6,15.9-0.5c3.4,0.2,7.1,0.4,10.1,2.3c2.4,1.6,3.1,4.6,3.1,7.3
			c0,3.6-0.6,7.3-1.9,10.7c-1,2.7-2.9,5.2-5.7,6.2c-5.9,2.3-12.4,1.5-18.6,1.6c-0.8,5-1.6,9.9-2.4,14.9c0,0.5-0.4,1-0.9,0.9
			c-2.6,0-5.3,0-7.9,0c-0.2-1,0.1-2,0.2-3c2-12.9,4.1-25.8,6.1-38.8c0.1-0.4,0.1-0.8,0.3-1.2C625,211.5,625.6,211.6,626.1,211.5z
			 M632.3,218.7c-0.8,4.5-1.5,9.1-2.2,13.6c3.9-0.1,7.9,0.4,11.7-0.6c1.6-0.3,2.7-1.7,3.1-3.1c0.7-2.1,1.2-4.5,0.8-6.8
			c-0.2-1.5-1.5-2.4-2.9-2.7C639.4,218.4,635.9,218.8,632.3,218.7z"/>
	</g>
	<g>
		<path class="st10" d="M667.9,212.7c1.2-1.3,3.1-1.5,4.7-1.7c2.3-0.2,4.6-0.2,6.9,0.2c1.1,0.2,2.5,0.5,3.1,1.6
			c0.8,1.4,1,3.1,1.3,4.6c1.4,12.1,2.8,24.2,4.2,36.2c0.1,0.5-0.1,1.2-0.7,1.2c-2.6,0-5.2,0-7.8,0c-0.6-4.2-1-8.4-1.6-12.6
			c-5,0-10,0-15,0c-1.7,3.9-3.5,7.9-5.2,11.8c-0.2,0.3-0.3,0.8-0.8,0.8c-2.6,0-5.2,0-7.8,0c-0.2-0.5-0.1-0.9,0.1-1.4
			c5.2-11.9,10.4-23.8,15.5-35.7C665.7,216,666.5,214.2,667.9,212.7z M672.9,219.3c-2.3,5.2-4.5,10.4-6.7,15.6c3.7,0,7.4,0,11,0
			c-0.6-5.2-1.2-10.4-1.8-15.6C675.4,218,673.1,218.1,672.9,219.3z"/>
	</g>
	<path class="st10" d="M687.5,212.1c-0.3-0.5,0.3-0.9,0.7-0.9c2.7,0,5.4,0,8.1,0c0.7-0.1,1.4,0.5,1.5,1.2c2.2,6.5,4.4,13,6.6,19.4
		c4.3-6.6,8.7-13.2,13-19.8c0.3-0.6,1-0.9,1.6-0.8c2.4,0,4.8,0,7.2,0c0.6,0,1.1,0,1.6,0.3c-0.1,0.3-0.2,0.6-0.4,1
		c-6.6,9.5-13.4,18.9-20,28.5c-0.8,4.3-1.4,8.7-2.1,13.1c-0.1,0.3-0.2,0.9-0.6,0.8c-2.5,0.1-5,0-7.5,0c-0.5,0.1-0.8-0.4-0.7-0.9
		c0.6-4.4,1.5-8.8,2.1-13.2C695,231.2,691.1,221.7,687.5,212.1z"/>
</g>
<g>
	<path class="st11" d="M585,211.3c0.8-0.1,1.6-0.1,2.4-0.1c10.1,0,20.2,0,30.3,0c0.4,0,0.9,0.1,0.9,0.6c-0.1,1.9-0.6,3.8-0.8,5.7
		c-0.1,0.6-0.2,1.5-1,1.5c-4,0.1-8,0-11.9,0c-1.8,11.6-3.7,23.2-5.5,34.8c-0.1,0.4-0.2,1-0.7,1c-1.9,0.1-3.8,0-5.6,0
		c-0.9,0-1.8,0.1-2.6-0.2c1.8-11.9,3.7-23.8,5.6-35.6c-3.9,0-7.8,0-11.7,0c-0.5,0.1-0.9-0.5-0.7-0.9c0.3-1.9,0.6-3.8,0.9-5.7
		C584.4,212,584.5,211.4,585,211.3z"/>
	<path class="st11" d="M676.4,260c0.8,0,1.6-0.2,2.3,0.1c0.7,2.2,1,4.5,1.6,6.8c1.2-2.1,2.3-4.3,3.5-6.4c0.5-0.9,1.8-0.4,2.6-0.5
		c-0.2,3.4-0.5,6.9-0.6,10.3c-0.7,0-1.4,0-2.1,0c0.1-2.2,0.3-4.3,0.4-6.5c-1.2,2-2.3,4.1-3.4,6.2c-0.6,0-1.1,0-1.7,0
		c-0.5-2.1-1-4.1-1.4-6.2c-0.6,2.1-1,4.3-1.6,6.4c-0.6,0.3-1.4,0.1-2.1,0.1C674.6,266.8,675.5,263.4,676.4,260z"/>
	<g>
		<path class="st11" d="M691.2,260.1c1.5-0.3,3.2-0.4,4.6,0.3c1.2,0.8,1,2.3,1,3.6c-0.2,1.8-0.5,3.6-1.5,5.1
			c-1.1,1.3-2.9,1.3-4.5,1.2c-1.1,0-2.5-0.4-2.9-1.7c-0.4-1.8,0-3.7,0.5-5.5C688.7,261.7,689.6,260.4,691.2,260.1z M691.7,261.9
			c-1.3,0.5-1.4,2.1-1.7,3.3c-0.1,0.9-0.4,2.1,0.2,2.9c0.9,0.6,2.1,0.5,3,0c0.8-0.7,0.9-1.8,1.1-2.8c0.1-1,0.4-2.1-0.1-3
			C693.7,261.6,692.6,261.6,691.7,261.9z"/>
	</g>
	<g>
		<path class="st11" d="M699.2,260c1.8-0.1,3.7-0.3,5.5,0c0.9,0.1,1.7,0.8,1.7,1.8c0,1.3-0.3,3-1.8,3.3c0.5,0.2,1.2,0.5,1.3,1.1
			c0.2,1.5-0.3,3.5-2,3.9c-2,0.4-4.2,0.2-6.2,0.1C698.1,266.8,698.6,263.4,699.2,260z M701,261.7c-0.1,0.9-0.3,1.8-0.4,2.6
			c0.9,0,1.9,0.1,2.9-0.2c0.7-0.3,0.9-1.3,0.6-2C703.3,261.4,702,261.8,701,261.7z M699.9,268.5c1,0,2,0.1,3-0.1
			c0.9-0.3,1.3-2,0.3-2.4c-0.9-0.1-1.9-0.1-2.8-0.1C700.2,266.8,700.1,267.6,699.9,268.5z"/>
	</g>
	<path class="st11" d="M708.8,259.9c0.7,0,1.4,0,2.1,0c-0.5,3.5-1.1,6.9-1.6,10.3c-0.7,0-1.4,0-2.1,0
		C707.7,266.8,708.1,263.4,708.8,259.9z"/>
	<path class="st11" d="M713,260c0.7,0,1.4,0,2.1,0c-0.3,2.8-0.9,5.7-1.3,8.5c1.5,0,3,0,4.5,0c-0.1,0.6-0.2,1.2-0.3,1.8
		c-2.2,0-4.4,0-6.6,0C711.8,266.8,712.4,263.4,713,260z"/>
	<path class="st11" d="M721,259.9c2.4,0,4.7,0,7.1,0c-0.1,0.6-0.2,1.2-0.3,1.9c-1.6,0-3.3,0-4.9,0c-0.2,0.8-0.3,1.7-0.4,2.5
		c1.5,0,3.1,0,4.6,0c-0.1,0.6-0.2,1.2-0.3,1.7c-1.5,0-3,0-4.5,0c-0.1,0.8-0.3,1.6-0.4,2.3c1.7,0,3.3,0,5,0c-0.1,0.6-0.2,1.2-0.3,1.8
		c-2.4,0-4.7,0-7.1,0C719.9,266.8,720.4,263.4,721,259.9z"/>
</g>
</svg>
