<?xml version="1.0" encoding="utf-8"?>
<!-- Generator: Adobe Illustrator 23.0.2, SVG Export Plug-In . SVG Version: 6.00 Build 0)  -->
<svg version="1.1" id="Layer_1" xmlns="http://www.w3.org/2000/svg" xmlns:xlink="http://www.w3.org/1999/xlink" x="0px" y="0px"
	 viewBox="0 0 800 709" style="enable-background:new 0 0 800 709;" xml:space="preserve">
<style type="text/css">
	.st0{fill:#3F3F3F;}
	.st1{fill:#F35B00;}
</style>
<g>
	<path class="st0" d="M3,206.7c2.9-0.5,6-1,9.4-1.4c3.4-0.4,6.7-0.8,10.1-1c3.4-0.3,6.6-0.4,9.8-0.6c3.2-0.1,6.1-0.2,8.7-0.2
		c6.2,0,12.3,0.6,18.3,1.7c6,1.1,11.4,3.1,16.2,5.9c4.8,2.8,8.6,6.6,11.4,11.5c2.9,4.9,4.3,11,4.3,18.3c0,10.9-2.5,19.8-7.6,26.6
		c-5.1,6.8-11.8,11.6-20.3,14.3l9.3,5.9l30.4,50.7h-30l-30.2-52.1L29,283.9v54.5H3V206.7z M42.9,226.7c-2.7,0-5.3,0.1-7.9,0.2
		c-2.6,0.1-4.6,0.4-6,0.8v38.6h11c7.2,0,13-1.6,17.3-4.9c4.3-3.3,6.5-8.7,6.5-16.3c0-5.7-1.8-10.2-5.3-13.4
		C54.9,228.3,49.7,226.7,42.9,226.7z"/>
	<path class="st0" d="M117.4,205.4h78.9v23.2h-52.8v31h48.1v23.2h-48.1v32.5h53.8v23.2h-79.8V205.4z"/>
	<path class="st0" d="M282.1,308.9h-40.9l-10.1,29.5h-26l47.9-134h19.2l47.9,134h-27.4L282.1,308.9z M247.9,288h28.5l-9.9-29.6
		l-4-20.9h-1l-4,21.1L247.9,288z"/>
	<path class="st0" d="M415.7,338.4h-84.2v-133h26v109.8h58.1V338.4z"/>
	<path class="st0" d="M498.8,228.6H460v109.8h-26V228.6h-39v-23.2h103.8V228.6z"/>
	<path class="st0" d="M514.9,205.4h26v133h-26V205.4z"/>
	<path class="st0" d="M669.6,269.4l2.9-26.4h-1.1l-8.2,21.3l-28.3,49.6h-8.4l-29.8-49.8l-8.4-21.1h-0.9l3.8,26.2v69.2h-24.7v-133
		h23.8l35.5,60.8l6.3,15.2h0.8l5.7-15.6l33.6-60.4h23.6v133h-26V269.4z"/>
	<path class="st0" d="M718.4,205.4h78.9v23.2h-52.8v31h48.1v23.2h-48.1v32.5h53.8v23.2h-79.8V205.4z"/>
</g>
<g>
	<path class="st0" d="M5,385.6c2.9-0.5,6-1,9.4-1.4c3.4-0.4,6.7-0.8,10.1-1c3.4-0.3,6.6-0.4,9.8-0.6c3.2-0.1,6.1-0.2,8.7-0.2
		c6.2,0,12.3,0.6,18.3,1.7c6,1.1,11.4,3.1,16.2,5.9c4.8,2.8,8.6,6.6,11.4,11.5c2.9,4.9,4.3,11,4.3,18.3c0,10.9-2.5,19.8-7.6,26.6
		c-5.1,6.8-11.8,11.6-20.3,14.3l9.3,5.9l30.4,50.7h-30l-30.2-52.1L31,462.7v54.5H5V385.6z M44.9,405.5c-2.7,0-5.3,0.1-7.9,0.2
		c-2.6,0.1-4.6,0.4-6,0.8v38.6h11c7.2,0,13-1.6,17.3-4.9c4.3-3.3,6.5-8.7,6.5-16.3c0-5.7-1.8-10.2-5.3-13.4
		C56.9,407.1,51.7,405.5,44.9,405.5z"/>
	<path class="st0" d="M119.4,384.2h78.9v23.2h-52.8v31h48.1v23.2h-48.1v32.5h53.8v23.2h-79.8V384.2z"/>
	<path class="st0" d="M265.5,447.9h49.6v59.3c-5.3,4.4-11.7,7.7-19.1,9.7c-7.4,2-14.7,3-21.9,3c-8.5,0-16.4-1.3-23.7-4
		c-7.3-2.7-13.6-6.8-18.9-12.4c-5.3-5.6-9.5-12.8-12.5-21.6c-3-8.7-4.6-19.1-4.6-31.2c0-12.5,1.8-23.2,5.4-32
		c3.6-8.8,8.4-16,14.3-21.5c5.9-5.5,12.5-9.5,19.9-12c7.3-2.5,14.8-3.7,22.4-3.7c7.6,0,14.3,0.6,20,1.7c5.8,1.1,10.4,2.3,13.8,3.6
		l-5.3,21.9c-3.2-1.3-6.7-2.2-10.6-2.9c-3.9-0.7-8.9-1-15-1c-5.4,0-10.5,0.8-15,2.5c-4.6,1.6-8.5,4.3-11.9,8.1
		c-3.4,3.7-6,8.5-7.8,14.3c-1.8,5.8-2.8,12.9-2.8,21.3c0,8,0.9,14.9,2.7,20.6c1.8,5.8,4.2,10.5,7.4,14.3c3.2,3.7,6.9,6.5,11.1,8.3
		c4.2,1.8,8.8,2.7,13.6,2.7c3.3,0,6.5-0.4,9.7-1.2c3.2-0.8,5.8-2.1,8-3.7v-25.1l-28.7-3V447.9z"/>
	<path class="st0" d="M337,384.2h26v133h-26V384.2z"/>
	<path class="st0" d="M445.9,481.5c0-4.1-1.5-7.3-4.5-9.9c-3-2.5-6.7-4.8-11.2-6.9c-4.5-2.1-9.4-4.2-14.6-6.5
		c-5.3-2.2-10.1-4.9-14.6-8.2c-4.5-3.2-8.2-7.3-11.2-12.1c-3-4.8-4.5-11-4.5-18.4c0-6.5,1.1-12.1,3.2-16.8c2.2-4.8,5.2-8.7,9.2-11.9
		c4-3.2,8.7-5.5,14.2-7c5.4-1.5,11.5-2.3,18.2-2.3c7.7,0,15,0.7,21.9,2c6.8,1.3,12.5,3.3,16.9,5.8l-8.2,21.9
		c-2.8-1.8-7-3.4-12.5-4.8c-5.6-1.5-11.6-2.2-18.1-2.2c-6.1,0-10.7,1.2-14,3.6c-3.2,2.4-4.8,5.6-4.8,9.7c0,3.8,1.5,7,4.5,9.5
		c3,2.5,6.7,4.9,11.2,7c4.5,2.2,9.4,4.4,14.6,6.7c5.3,2.3,10.1,5,14.6,8.3c4.5,3.2,8.2,7.2,11.2,12c3,4.8,4.5,10.7,4.5,17.8
		c0,7.1-1.2,13.2-3.5,18.3c-2.3,5.1-5.6,9.4-9.9,12.8c-4.2,3.4-9.4,6-15.4,7.6c-6,1.6-12.6,2.5-19.9,2.5c-9.5,0-17.9-0.9-25.1-2.7
		c-7.2-1.8-12.5-3.5-16-5.3l8.4-22.2c1.4,0.8,3.2,1.6,5.4,2.5c2.2,0.9,4.7,1.7,7.5,2.5c2.8,0.8,5.7,1.4,8.8,1.9
		c3.1,0.5,6.3,0.8,9.6,0.8c7.7,0,13.6-1.3,17.8-3.9C443.8,490.8,445.9,486.9,445.9,481.5z"/>
	<path class="st0" d="M583.6,407.4h-38.8v109.8h-26V407.4h-39v-23.2h103.8V407.4z"/>
	<path class="st0" d="M597.1,384.2H676v23.2h-52.8v31h48.1v23.2h-48.1v32.5h53.8v23.2h-79.8V384.2z"/>
	<path class="st0" d="M696.3,385.6c2.9-0.5,6-1,9.4-1.4c3.4-0.4,6.7-0.8,10.1-1c3.4-0.3,6.6-0.4,9.8-0.6c3.2-0.1,6.1-0.2,8.7-0.2
		c6.2,0,12.3,0.6,18.3,1.7c6,1.1,11.4,3.1,16.2,5.9c4.7,2.8,8.6,6.6,11.4,11.5c2.9,4.9,4.3,11,4.3,18.3c0,10.9-2.5,19.8-7.6,26.6
		c-5.1,6.8-11.8,11.6-20.3,14.3l9.3,5.9l30.4,50.7h-30L736,465.2l-13.7-2.5v54.5h-26V385.6z M736.2,405.5c-2.7,0-5.3,0.1-7.9,0.2
		c-2.6,0.1-4.6,0.4-6,0.8v38.6h11c7.2,0,13-1.6,17.3-4.9c4.3-3.3,6.5-8.7,6.5-16.3c0-5.7-1.8-10.2-5.3-13.4
		C748.2,407.1,743.1,405.5,736.2,405.5z"/>
</g>
<g>
	<path class="st1" d="M220.7,616.7c-15.9-11-30.9-23.4-44.9-37.4c-5.3-5.3-10.5-10.9-15.4-16.5h-42.9c23.8,32.3,52.9,60.3,86.1,82.8
		l-0.2-22.7L220.7,616.7z"/>
	<path class="st1" d="M640.8,562.9c-4.9,5.7-10,11.2-15.4,16.5c-60,60-139.9,93.1-224.8,93.1c-26.5,0-52.4-3.2-77.5-9.5l-19,11.2
		l3.9,19.4c29.5,8,60.6,12.4,92.6,12.4c116.1,0,219.1-56.3,283.1-143.1H640.8z"/>
	<path class="st1" d="M286.2,651.3c-11.5-4.4-22.8-9.6-33.7-15.3l-20.1,7.2l0.2,20c14.2,7.7,28.9,14.5,44.2,20.3l-4.8-23.8
		L286.2,651.3z"/>
	<path class="st1" d="M597.6,63.5l0.2,22.1L579.9,92c16.1,11.1,31.3,23.7,45.5,37.8c9.7,9.7,18.8,20,27.1,30.8h41.2
		C668.2,122.3,635.6,89.3,597.6,63.5z"/>
	<path class="st1" d="M514.4,57.6c11.5,4.4,22.7,9.5,33.6,15.2l20.8-7.5l-0.2-19.4c-14.1-7.7-28.8-14.4-44-20.2l4.6,23.1L514.4,57.6
		z"/>
	<path class="st1" d="M400.6,36.7c26.2,0,51.9,3.2,76.7,9.3l19.8-11.7l-3.7-18.7c-29.6-8.1-60.6-12.4-92.8-12.4
		c-122.3,0-230.1,62.5-293,157.4h41.2c8.3-10.7,17.3-21,27.1-30.8C235.9,69.8,315.7,36.7,400.6,36.7z"/>
</g>
</svg>
